# xmcd
#
# Track frame offsets:
#	150
#	10157
#	23505
#	35960
#	48755
#	62072
#	71850
#	81997
#	96284
#	110327
#	122412
#	134927
#	146859
#	158665
#	168146
#	178572
#	190580
#	200586
#	210583
#	221084
#	232410
#	242116
#	254049
#	264145
#
# Disc length: 3662 seconds
#
# Revision: 0
# Processed by: cddbd v1.5.2PL0 Copyright (c) Steve Scherf et al.
# Submitted via: EZCDAudioConverter 3.1.0.1
#
DISCID=660e4c18
DTITLE=Ned Miller - From A Jack To A King and The Best Of Ned Miller
DYEAR=19
DGENRE=Country
TTITLE0=From A Jack To A King
TTITLE1=Long Shadow
TTITLE2=The Cry Of The Wild Goose
TTITLE3=The Man Behind The Gun
TTITLE4=Billy Carion
TTITLE5=Stage Coach
TTITLE6=Mona Lisa
TTITLE7=One Among The Many
TTITLE8=Just Before Dawn
TTITLE9=Sunday Morning Tears
TTITLE10=You Belong To My Heart
TTITLE11=Lights In The Street
TTITLE12=Do What You Do Well
TTITLE13=Invisible Tears
TTITLE14=From A Jack To A King
TTITLE15=Just Before Dawn
TTITLE16=If The World Turned Into Ashes
TTITLE17=Turn Down The Starlight
TTITLE18=Lovin' Pains
TTITLE19=Behind The Tears
TTITLE20=That's Why I Sing In A Honky Tonk
TTITLE21=Dark Moon
TTITLE22=Sunday Morning Tears
TTITLE23=Go On Back You Fool
EXTD=
EXTT0=
EXTT1=
EXTT2=
EXTT3=
EXTT4=
EXTT5=
EXTT6=
EXTT7=
EXTT8=
EXTT9=
EXTT10=
EXTT11=
EXTT12=
EXTT13=
EXTT14=
EXTT15=
EXTT16=
EXTT17=
EXTT18=
EXTT19=
EXTT20=
EXTT21=
EXTT22=
EXTT23=
PLAYORDER=
